# MagicaVoxel @ Ephtracy

# group
g HotDog

# material
mtllib HotDog.mtl
usemtl palette

# normals
vn -1 0 0
vn 1 0 0
vn 0 0 1
vn 0 0 -1
vn 0 -1 0
vn 0 1 0

# texcoords
vt 0.791016 0.5
vt 0.884766 0.5

# verts
v -4.5 1 0.5
v -4.5 1 -0.5
v -4.5 2 0.5
v -4.5 2 -0.5
v -3.5 0 0.5
v -3.5 0 -0.5
v -3.5 1 1.5
v -3.5 1 0.5
v -3.5 1 -0.5
v -3.5 1 -1.5
v -3.5 2 1.5
v -3.5 2 0.5
v -3.5 2 -0.5
v -3.5 2 -1.5
v 3.5 0 0.5
v 3.5 0 -0.5
v 3.5 1 1.5
v 3.5 1 0.5
v 3.5 1 -0.5
v 3.5 1 -1.5
v 3.5 2 1.5
v 3.5 2 0.5
v 3.5 2 -0.5
v 3.5 2 -1.5
v 4.5 1 0.5
v 4.5 1 -0.5
v 4.5 2 0.5
v 4.5 2 -0.5
v -3.5 1 1.5
v -3.5 2 1.5
v 3.5 1 1.5
v 3.5 2 1.5
v -4.5 1 0.5
v -4.5 2 0.5
v -3.5 0 0.5
v -3.5 1 0.5
v -3.5 2 0.5
v 3.5 0 0.5
v 3.5 1 0.5
v 3.5 2 0.5
v 4.5 1 0.5
v 4.5 2 0.5
v -4.5 1 -0.5
v -4.5 2 -0.5
v -3.5 0 -0.5
v -3.5 1 -0.5
v -3.5 2 -0.5
v 3.5 0 -0.5
v 3.5 1 -0.5
v 3.5 2 -0.5
v 4.5 1 -0.5
v 4.5 2 -0.5
v -3.5 1 -1.5
v -3.5 2 -1.5
v 3.5 1 -1.5
v 3.5 2 -1.5
v -3.5 0 0.5
v 3.5 0 0.5
v -3.5 0 -0.5
v 3.5 0 -0.5
v -3.5 1 1.5
v 3.5 1 1.5
v -4.5 1 0.5
v -3.5 1 0.5
v 3.5 1 0.5
v 4.5 1 0.5
v -4.5 1 -0.5
v -3.5 1 -0.5
v 3.5 1 -0.5
v 4.5 1 -0.5
v -3.5 1 -1.5
v 3.5 1 -1.5
v -3.5 2 1.5
v 3.5 2 1.5
v -4.5 2 0.5
v -3.5 2 0.5
v 3.5 2 0.5
v 4.5 2 0.5
v -4.5 2 -0.5
v -3.5 2 -0.5
v 3.5 2 -0.5
v 4.5 2 -0.5
v -3.5 2 -1.5
v 3.5 2 -1.5

# faces
f 3/1/1 2/1/1 1/1/1
f 4/1/1 2/1/1 3/1/1
f 8/2/1 6/2/1 5/2/1
f 9/2/1 6/2/1 8/2/1
f 11/2/1 8/2/1 7/2/1
f 12/2/1 8/2/1 11/2/1
f 13/2/1 10/2/1 9/2/1
f 14/2/1 10/2/1 13/2/1
f 15/2/2 16/2/2 18/2/2
f 18/2/2 16/2/2 19/2/2
f 17/2/2 18/2/2 21/2/2
f 21/2/2 18/2/2 22/2/2
f 19/2/2 20/2/2 23/2/2
f 23/2/2 20/2/2 24/2/2
f 25/1/2 26/1/2 27/1/2
f 27/1/2 26/1/2 28/1/2
f 31/2/3 30/2/3 29/2/3
f 32/2/3 30/2/3 31/2/3
f 36/1/3 34/1/3 33/1/3
f 37/1/3 34/1/3 36/1/3
f 38/2/3 36/2/3 35/2/3
f 39/2/3 36/2/3 38/2/3
f 41/1/3 40/1/3 39/1/3
f 42/1/3 40/1/3 41/1/3
f 43/1/4 44/1/4 46/1/4
f 46/1/4 44/1/4 47/1/4
f 45/2/4 46/2/4 48/2/4
f 48/2/4 46/2/4 49/2/4
f 49/1/4 50/1/4 51/1/4
f 51/1/4 50/1/4 52/1/4
f 53/2/4 54/2/4 55/2/4
f 55/2/4 54/2/4 56/2/4
f 59/2/5 58/2/5 57/2/5
f 60/2/5 58/2/5 59/2/5
f 64/2/5 62/2/5 61/2/5
f 65/2/5 62/2/5 64/2/5
f 67/1/5 64/1/5 63/1/5
f 68/1/5 64/1/5 67/1/5
f 69/1/5 66/1/5 65/1/5
f 70/1/5 66/1/5 69/1/5
f 71/2/5 69/2/5 68/2/5
f 72/2/5 69/2/5 71/2/5
f 73/2/6 74/2/6 76/2/6
f 76/2/6 74/2/6 77/2/6
f 75/1/6 76/1/6 79/1/6
f 77/1/6 78/1/6 79/1/6
f 76/1/6 77/1/6 79/1/6
f 79/1/6 78/1/6 80/1/6
f 80/1/6 78/1/6 81/1/6
f 81/1/6 78/1/6 82/1/6
f 80/2/6 81/2/6 83/2/6
f 83/2/6 81/2/6 84/2/6
