# MagicaVoxel @ Ephtracy

# group
g PauseMenu

# material
mtllib PauseMenu.mtl
usemtl palette

# normals
vn -1 0 0
vn 1 0 0
vn 0 0 1
vn 0 0 -1
vn 0 -1 0
vn 0 1 0

# texcoords
vt 0.900391 0.5
vt 0.912109 0.5

# verts
v -48 0 -0
v -48 0 -1
v -48 34 -0
v -48 34 -1
v -13 23 1
v -13 23 -0
v -13 24 1
v -13 24 -0
v -11 25 1
v -11 25 -0
v -11 30 1
v -11 30 -0
v -9 28 1
v -9 28 -0
v -9 29 1
v -9 29 -0
v -7 25 1
v -7 25 -0
v -7 30 1
v -7 30 -0
v -5 25 1
v -5 25 -0
v -5 27 1
v -5 27 -0
v -5 28 1
v -5 28 -0
v -5 29 1
v -5 29 -0
v -3 25 1
v -3 25 -0
v -3 30 1
v -3 30 -0
v -1 26 1
v -1 26 -0
v -1 30 1
v -1 30 -0
v 1 25 1
v 1 25 -0
v 1 26 1
v 1 26 -0
v 1 27 1
v 1 27 -0
v 1 30 1
v 1 30 -0
v 3 26 1
v 3 26 -0
v 3 27 1
v 3 27 -0
v 5 25 1
v 5 25 -0
v 5 30 1
v 5 30 -0
v 9 25 1
v 9 25 -0
v 9 30 1
v 9 30 -0
v 11 26 1
v 11 26 -0
v 11 29 1
v 11 29 -0
v -10 25 1
v -10 25 -0
v -10 27 1
v -10 27 -0
v -10 28 1
v -10 28 -0
v -10 29 1
v -10 29 -0
v -9 27 1
v -9 27 -0
v -9 28 1
v -9 28 -0
v -9 29 1
v -9 29 -0
v -9 30 1
v -9 30 -0
v -8 28 1
v -8 28 -0
v -8 29 1
v -8 29 -0
v -6 25 1
v -6 25 -0
v -6 27 1
v -6 27 -0
v -6 28 1
v -6 28 -0
v -6 29 1
v -6 29 -0
v -4 25 1
v -4 25 -0
v -4 30 1
v -4 30 -0
v -2 26 1
v -2 26 -0
v -2 30 1
v -2 30 -0
v 0 25 1
v 0 25 -0
v 0 30 1
v 0 30 -0
v 2 28 1
v 2 28 -0
v 2 29 1
v 2 29 -0
v 4 25 1
v 4 25 -0
v 4 28 1
v 4 28 -0
v 4 29 1
v 4 29 -0
v 4 30 1
v 4 30 -0
v 6 26 1
v 6 26 -0
v 6 27 1
v 6 27 -0
v 6 28 1
v 6 28 -0
v 6 29 1
v 6 29 -0
v 7 27 1
v 7 27 -0
v 7 28 1
v 7 28 -0
v 8 25 1
v 8 25 -0
v 8 26 1
v 8 26 -0
v 8 29 1
v 8 29 -0
v 8 30 1
v 8 30 -0
v 10 26 1
v 10 26 -0
v 10 29 1
v 10 29 -0
v 11 25 1
v 11 25 -0
v 11 26 1
v 11 26 -0
v 11 29 1
v 11 29 -0
v 11 30 1
v 11 30 -0
v 12 26 1
v 12 26 -0
v 12 29 1
v 12 29 -0
v 14 23 1
v 14 23 -0
v 14 24 1
v 14 24 -0
v 48 0 -0
v 48 0 -1
v 48 34 -0
v 48 34 -1
v -13 23 1
v -13 24 1
v -11 25 1
v -11 30 1
v -10 25 1
v -10 27 1
v -10 28 1
v -10 29 1
v -9 27 1
v -9 28 1
v -9 29 1
v -9 30 1
v -8 28 1
v -8 29 1
v -7 25 1
v -7 30 1
v -6 25 1
v -6 27 1
v -6 28 1
v -6 29 1
v -5 25 1
v -5 27 1
v -5 28 1
v -5 29 1
v -4 25 1
v -4 30 1
v -3 25 1
v -3 30 1
v -2 26 1
v -2 30 1
v -1 26 1
v -1 30 1
v 0 25 1
v 0 30 1
v 1 25 1
v 1 26 1
v 1 27 1
v 1 30 1
v 2 28 1
v 2 29 1
v 3 26 1
v 3 27 1
v 4 25 1
v 4 28 1
v 4 29 1
v 4 30 1
v 5 25 1
v 5 30 1
v 6 26 1
v 6 27 1
v 6 28 1
v 6 29 1
v 7 27 1
v 7 28 1
v 8 25 1
v 8 26 1
v 8 29 1
v 8 30 1
v 9 25 1
v 9 30 1
v 10 26 1
v 10 29 1
v 11 25 1
v 11 26 1
v 11 29 1
v 11 30 1
v 12 26 1
v 12 29 1
v 14 23 1
v 14 24 1
v -48 0 -0
v -48 34 -0
v -13 23 -0
v -13 24 -0
v -11 25 -0
v -11 30 -0
v -10 25 -0
v -10 27 -0
v -10 28 -0
v -10 29 -0
v -9 27 -0
v -9 28 -0
v -9 29 -0
v -9 30 -0
v -8 28 -0
v -8 29 -0
v -7 25 -0
v -7 30 -0
v -6 25 -0
v -6 27 -0
v -6 28 -0
v -6 29 -0
v -5 25 -0
v -5 27 -0
v -5 28 -0
v -5 29 -0
v -4 25 -0
v -4 30 -0
v -3 25 -0
v -3 30 -0
v -2 26 -0
v -2 30 -0
v -1 26 -0
v -1 30 -0
v 0 25 -0
v 0 30 -0
v 1 25 -0
v 1 26 -0
v 1 27 -0
v 1 30 -0
v 2 28 -0
v 2 29 -0
v 3 26 -0
v 3 27 -0
v 4 25 -0
v 4 28 -0
v 4 29 -0
v 4 30 -0
v 5 25 -0
v 5 30 -0
v 6 26 -0
v 6 27 -0
v 6 28 -0
v 6 29 -0
v 7 27 -0
v 7 28 -0
v 8 25 -0
v 8 26 -0
v 8 29 -0
v 8 30 -0
v 9 25 -0
v 9 30 -0
v 10 26 -0
v 10 29 -0
v 11 25 -0
v 11 26 -0
v 11 29 -0
v 11 30 -0
v 12 26 -0
v 12 29 -0
v 14 23 -0
v 14 24 -0
v 48 0 -0
v 48 34 -0
v -48 0 -1
v -48 34 -1
v 48 0 -1
v 48 34 -1
v -48 0 -0
v 48 0 -0
v -48 0 -1
v 48 0 -1
v -13 23 1
v 14 23 1
v -13 23 -0
v 14 23 -0
v -11 25 1
v -10 25 1
v -7 25 1
v -6 25 1
v -5 25 1
v -4 25 1
v -3 25 1
v 0 25 1
v 1 25 1
v 4 25 1
v 5 25 1
v 8 25 1
v 9 25 1
v 11 25 1
v -11 25 -0
v -10 25 -0
v -7 25 -0
v -6 25 -0
v -5 25 -0
v -4 25 -0
v -3 25 -0
v 0 25 -0
v 1 25 -0
v 4 25 -0
v 5 25 -0
v 8 25 -0
v 9 25 -0
v 11 25 -0
v 11 26 1
v 12 26 1
v 11 26 -0
v 12 26 -0
v -10 27 1
v -9 27 1
v -6 27 1
v -5 27 1
v 1 27 1
v 3 27 1
v 6 27 1
v 7 27 1
v -10 27 -0
v -9 27 -0
v -6 27 -0
v -5 27 -0
v 1 27 -0
v 3 27 -0
v 6 27 -0
v 7 27 -0
v -9 28 1
v -8 28 1
v -9 28 -0
v -8 28 -0
v -10 29 1
v -9 29 1
v -6 29 1
v -5 29 1
v 2 29 1
v 4 29 1
v 6 29 1
v 8 29 1
v 10 29 1
v 11 29 1
v -10 29 -0
v -9 29 -0
v -6 29 -0
v -5 29 -0
v 2 29 -0
v 4 29 -0
v 6 29 -0
v 8 29 -0
v 10 29 -0
v 11 29 -0
v -13 24 1
v 14 24 1
v -13 24 -0
v 14 24 -0
v -2 26 1
v -1 26 1
v 1 26 1
v 3 26 1
v 6 26 1
v 8 26 1
v 10 26 1
v 11 26 1
v -2 26 -0
v -1 26 -0
v 1 26 -0
v 3 26 -0
v 6 26 -0
v 8 26 -0
v 10 26 -0
v 11 26 -0
v -10 28 1
v -9 28 1
v -6 28 1
v -5 28 1
v 2 28 1
v 4 28 1
v 6 28 1
v 7 28 1
v -10 28 -0
v -9 28 -0
v -6 28 -0
v -5 28 -0
v 2 28 -0
v 4 28 -0
v 6 28 -0
v 7 28 -0
v -9 29 1
v -8 29 1
v 11 29 1
v 12 29 1
v -9 29 -0
v -8 29 -0
v 11 29 -0
v 12 29 -0
v -11 30 1
v -9 30 1
v -7 30 1
v -4 30 1
v -3 30 1
v -2 30 1
v -1 30 1
v 0 30 1
v 1 30 1
v 4 30 1
v 5 30 1
v 8 30 1
v 9 30 1
v 11 30 1
v -11 30 -0
v -9 30 -0
v -7 30 -0
v -4 30 -0
v -3 30 -0
v -2 30 -0
v -1 30 -0
v 0 30 -0
v 1 30 -0
v 4 30 -0
v 5 30 -0
v 8 30 -0
v 9 30 -0
v 11 30 -0
v -48 34 -0
v 48 34 -0
v -48 34 -1
v 48 34 -1

# faces
f 3/2/1 2/2/1 1/2/1
f 4/2/1 2/2/1 3/2/1
f 7/1/1 6/1/1 5/1/1
f 8/1/1 6/1/1 7/1/1
f 11/1/1 10/1/1 9/1/1
f 12/1/1 10/1/1 11/1/1
f 15/1/1 14/1/1 13/1/1
f 16/1/1 14/1/1 15/1/1
f 19/1/1 18/1/1 17/1/1
f 20/1/1 18/1/1 19/1/1
f 23/1/1 22/1/1 21/1/1
f 24/1/1 22/1/1 23/1/1
f 27/1/1 26/1/1 25/1/1
f 28/1/1 26/1/1 27/1/1
f 31/1/1 30/1/1 29/1/1
f 32/1/1 30/1/1 31/1/1
f 35/1/1 34/1/1 33/1/1
f 36/1/1 34/1/1 35/1/1
f 39/1/1 38/1/1 37/1/1
f 40/1/1 38/1/1 39/1/1
f 43/1/1 42/1/1 41/1/1
f 44/1/1 42/1/1 43/1/1
f 47/1/1 46/1/1 45/1/1
f 48/1/1 46/1/1 47/1/1
f 51/1/1 50/1/1 49/1/1
f 52/1/1 50/1/1 51/1/1
f 55/1/1 54/1/1 53/1/1
f 56/1/1 54/1/1 55/1/1
f 59/1/1 58/1/1 57/1/1
f 60/1/1 58/1/1 59/1/1
f 61/1/2 62/1/2 63/1/2
f 63/1/2 62/1/2 64/1/2
f 65/1/2 66/1/2 67/1/2
f 67/1/2 66/1/2 68/1/2
f 69/1/2 70/1/2 71/1/2
f 71/1/2 70/1/2 72/1/2
f 73/1/2 74/1/2 75/1/2
f 75/1/2 74/1/2 76/1/2
f 77/1/2 78/1/2 79/1/2
f 79/1/2 78/1/2 80/1/2
f 81/1/2 82/1/2 83/1/2
f 83/1/2 82/1/2 84/1/2
f 85/1/2 86/1/2 87/1/2
f 87/1/2 86/1/2 88/1/2
f 89/1/2 90/1/2 91/1/2
f 91/1/2 90/1/2 92/1/2
f 93/1/2 94/1/2 95/1/2
f 95/1/2 94/1/2 96/1/2
f 97/1/2 98/1/2 99/1/2
f 99/1/2 98/1/2 100/1/2
f 101/1/2 102/1/2 103/1/2
f 103/1/2 102/1/2 104/1/2
f 105/1/2 106/1/2 107/1/2
f 107/1/2 106/1/2 108/1/2
f 109/1/2 110/1/2 111/1/2
f 111/1/2 110/1/2 112/1/2
f 113/1/2 114/1/2 115/1/2
f 115/1/2 114/1/2 116/1/2
f 117/1/2 118/1/2 119/1/2
f 119/1/2 118/1/2 120/1/2
f 121/1/2 122/1/2 123/1/2
f 123/1/2 122/1/2 124/1/2
f 125/1/2 126/1/2 127/1/2
f 127/1/2 126/1/2 128/1/2
f 129/1/2 130/1/2 131/1/2
f 131/1/2 130/1/2 132/1/2
f 133/1/2 134/1/2 135/1/2
f 135/1/2 134/1/2 136/1/2
f 137/1/2 138/1/2 139/1/2
f 139/1/2 138/1/2 140/1/2
f 141/1/2 142/1/2 143/1/2
f 143/1/2 142/1/2 144/1/2
f 145/1/2 146/1/2 147/1/2
f 147/1/2 146/1/2 148/1/2
f 149/1/2 150/1/2 151/1/2
f 151/1/2 150/1/2 152/1/2
f 153/2/2 154/2/2 155/2/2
f 155/2/2 154/2/2 156/2/2
f 161/1/3 160/1/3 159/1/3
f 162/1/3 160/1/3 161/1/3
f 163/1/3 160/1/3 162/1/3
f 164/1/3 160/1/3 163/1/3
f 165/1/3 163/1/3 162/1/3
f 166/1/3 163/1/3 165/1/3
f 167/1/3 160/1/3 164/1/3
f 168/1/3 160/1/3 167/1/3
f 169/1/3 167/1/3 166/1/3
f 170/1/3 167/1/3 169/1/3
f 173/1/3 172/1/3 171/1/3
f 174/1/3 172/1/3 173/1/3
f 175/1/3 172/1/3 174/1/3
f 176/1/3 172/1/3 175/1/3
f 178/1/3 175/1/3 174/1/3
f 179/1/3 175/1/3 178/1/3
f 180/1/3 172/1/3 176/1/3
f 181/1/3 179/1/3 178/1/3
f 181/1/3 180/1/3 179/1/3
f 181/1/3 178/1/3 177/1/3
f 182/1/3 172/1/3 180/1/3
f 182/1/3 180/1/3 181/1/3
f 185/1/3 184/1/3 183/1/3
f 186/1/3 184/1/3 185/1/3
f 187/1/3 185/1/3 183/1/3
f 189/1/3 187/1/3 183/1/3
f 189/1/3 188/1/3 187/1/3
f 190/1/3 188/1/3 189/1/3
f 195/1/3 194/1/3 193/1/3
f 196/1/3 194/1/3 195/1/3
f 197/1/3 192/1/3 191/1/3
f 198/1/3 195/1/3 193/1/3
f 199/1/3 197/1/3 191/1/3
f 199/1/3 198/1/3 197/1/3
f 200/1/3 195/1/3 198/1/3
f 200/1/3 198/1/3 199/1/3
f 201/1/3 194/1/3 196/1/3
f 202/1/3 194/1/3 201/1/3
f 205/1/3 204/1/3 203/1/3
f 206/1/3 204/1/3 205/1/3
f 207/1/3 204/1/3 206/1/3
f 208/1/3 204/1/3 207/1/3
f 209/1/3 207/1/3 206/1/3
f 210/1/3 207/1/3 209/1/3
f 211/1/3 205/1/3 203/1/3
f 212/1/3 205/1/3 211/1/3
f 213/1/3 204/1/3 208/1/3
f 214/1/3 204/1/3 213/1/3
f 217/1/3 216/1/3 215/1/3
f 218/1/3 216/1/3 217/1/3
f 219/1/3 217/1/3 215/1/3
f 220/1/3 217/1/3 219/1/3
f 221/1/3 216/1/3 218/1/3
f 222/1/3 216/1/3 221/1/3
f 223/1/3 221/1/3 220/1/3
f 224/1/3 221/1/3 223/1/3
f 225/1/3 158/1/3 157/1/3
f 226/1/3 158/1/3 225/1/3
f 229/2/3 228/2/3 227/2/3
f 230/2/3 228/2/3 229/2/3
f 231/2/3 228/2/3 230/2/3
f 232/2/3 228/2/3 231/2/3
f 233/2/3 231/2/3 230/2/3
f 237/2/3 234/2/3 233/2/3
f 238/2/3 236/2/3 235/2/3
f 239/2/3 236/2/3 238/2/3
f 240/2/3 228/2/3 232/2/3
f 241/2/3 238/2/3 237/2/3
f 242/2/3 240/2/3 239/2/3
f 243/2/3 241/2/3 237/2/3
f 243/2/3 242/2/3 241/2/3
f 243/2/3 233/2/3 230/2/3
f 243/2/3 237/2/3 233/2/3
f 244/2/3 240/2/3 242/2/3
f 244/2/3 242/2/3 243/2/3
f 244/2/3 228/2/3 240/2/3
f 245/2/3 243/2/3 230/2/3
f 249/2/3 245/2/3 230/2/3
f 249/2/3 246/2/3 245/2/3
f 250/2/3 246/2/3 249/2/3
f 251/2/3 248/2/3 247/2/3
f 252/2/3 248/2/3 251/2/3
f 253/2/3 249/2/3 230/2/3
f 254/2/3 228/2/3 244/2/3
f 255/2/3 253/2/3 230/2/3
f 255/2/3 254/2/3 253/2/3
f 256/2/3 228/2/3 254/2/3
f 256/2/3 254/2/3 255/2/3
f 258/2/3 228/2/3 256/2/3
f 259/2/3 258/2/3 257/2/3
f 260/2/3 228/2/3 258/2/3
f 260/2/3 258/2/3 259/2/3
f 261/2/3 255/2/3 230/2/3
f 262/2/3 228/2/3 260/2/3
f 263/2/3 261/2/3 230/2/3
f 263/2/3 262/2/3 261/2/3
f 264/2/3 262/2/3 263/2/3
f 265/2/3 262/2/3 264/2/3
f 266/2/3 228/2/3 262/2/3
f 266/2/3 262/2/3 265/2/3
f 269/2/3 265/2/3 264/2/3
f 270/2/3 265/2/3 269/2/3
f 271/2/3 263/2/3 230/2/3
f 272/2/3 268/2/3 267/2/3
f 273/2/3 268/2/3 272/2/3
f 274/2/3 228/2/3 266/2/3
f 275/2/3 271/2/3 230/2/3
f 275/2/3 274/2/3 273/2/3
f 275/2/3 273/2/3 272/2/3
f 275/2/3 272/2/3 271/2/3
f 276/2/3 228/2/3 274/2/3
f 276/2/3 274/2/3 275/2/3
f 281/2/3 278/2/3 277/2/3
f 282/2/3 280/2/3 279/2/3
f 283/2/3 275/2/3 230/2/3
f 284/2/3 282/2/3 281/2/3
f 284/2/3 281/2/3 277/2/3
f 285/2/3 280/2/3 282/2/3
f 285/2/3 282/2/3 284/2/3
f 286/2/3 228/2/3 276/2/3
f 287/2/3 283/2/3 230/2/3
f 287/2/3 286/2/3 285/2/3
f 287/2/3 285/2/3 284/2/3
f 287/2/3 284/2/3 283/2/3
f 288/2/3 228/2/3 286/2/3
f 288/2/3 286/2/3 287/2/3
f 291/2/3 287/2/3 230/2/3
f 292/2/3 290/2/3 289/2/3
f 293/2/3 290/2/3 292/2/3
f 294/2/3 228/2/3 288/2/3
f 295/2/3 292/2/3 291/2/3
f 296/2/3 294/2/3 293/2/3
f 297/2/3 229/2/3 227/2/3
f 298/2/3 296/2/3 295/2/3
f 298/2/3 291/2/3 230/2/3
f 298/2/3 295/2/3 291/2/3
f 299/2/3 297/2/3 227/2/3
f 299/2/3 298/2/3 297/2/3
f 300/2/3 296/2/3 298/2/3
f 300/2/3 298/2/3 299/2/3
f 300/2/3 294/2/3 296/2/3
f 300/2/3 228/2/3 294/2/3
f 301/2/4 302/2/4 303/2/4
f 303/2/4 302/2/4 304/2/4
f 307/2/5 306/2/5 305/2/5
f 308/2/5 306/2/5 307/2/5
f 311/1/5 310/1/5 309/1/5
f 312/1/5 310/1/5 311/1/5
f 327/1/5 314/1/5 313/1/5
f 328/1/5 314/1/5 327/1/5
f 329/1/5 316/1/5 315/1/5
f 330/1/5 316/1/5 329/1/5
f 331/1/5 318/1/5 317/1/5
f 332/1/5 318/1/5 331/1/5
f 333/1/5 320/1/5 319/1/5
f 334/1/5 320/1/5 333/1/5
f 335/1/5 322/1/5 321/1/5
f 336/1/5 322/1/5 335/1/5
f 337/1/5 324/1/5 323/1/5
f 338/1/5 324/1/5 337/1/5
f 339/1/5 326/1/5 325/1/5
f 340/1/5 326/1/5 339/1/5
f 343/1/5 342/1/5 341/1/5
f 344/1/5 342/1/5 343/1/5
f 353/1/5 346/1/5 345/1/5
f 354/1/5 346/1/5 353/1/5
f 355/1/5 348/1/5 347/1/5
f 356/1/5 348/1/5 355/1/5
f 357/1/5 350/1/5 349/1/5
f 358/1/5 350/1/5 357/1/5
f 359/1/5 352/1/5 351/1/5
f 360/1/5 352/1/5 359/1/5
f 363/1/5 362/1/5 361/1/5
f 364/1/5 362/1/5 363/1/5
f 375/1/5 366/1/5 365/1/5
f 376/1/5 366/1/5 375/1/5
f 377/1/5 368/1/5 367/1/5
f 378/1/5 368/1/5 377/1/5
f 379/1/5 370/1/5 369/1/5
f 380/1/5 370/1/5 379/1/5
f 381/1/5 372/1/5 371/1/5
f 382/1/5 372/1/5 381/1/5
f 383/1/5 374/1/5 373/1/5
f 384/1/5 374/1/5 383/1/5
f 385/1/6 386/1/6 387/1/6
f 387/1/6 386/1/6 388/1/6
f 389/1/6 390/1/6 397/1/6
f 397/1/6 390/1/6 398/1/6
f 391/1/6 392/1/6 399/1/6
f 399/1/6 392/1/6 400/1/6
f 393/1/6 394/1/6 401/1/6
f 401/1/6 394/1/6 402/1/6
f 395/1/6 396/1/6 403/1/6
f 403/1/6 396/1/6 404/1/6
f 405/1/6 406/1/6 413/1/6
f 413/1/6 406/1/6 414/1/6
f 407/1/6 408/1/6 415/1/6
f 415/1/6 408/1/6 416/1/6
f 409/1/6 410/1/6 417/1/6
f 417/1/6 410/1/6 418/1/6
f 411/1/6 412/1/6 419/1/6
f 419/1/6 412/1/6 420/1/6
f 421/1/6 422/1/6 425/1/6
f 425/1/6 422/1/6 426/1/6
f 423/1/6 424/1/6 427/1/6
f 427/1/6 424/1/6 428/1/6
f 429/1/6 430/1/6 443/1/6
f 443/1/6 430/1/6 444/1/6
f 431/1/6 432/1/6 445/1/6
f 445/1/6 432/1/6 446/1/6
f 433/1/6 434/1/6 447/1/6
f 447/1/6 434/1/6 448/1/6
f 435/1/6 436/1/6 449/1/6
f 449/1/6 436/1/6 450/1/6
f 437/1/6 438/1/6 451/1/6
f 451/1/6 438/1/6 452/1/6
f 439/1/6 440/1/6 453/1/6
f 453/1/6 440/1/6 454/1/6
f 441/1/6 442/1/6 455/1/6
f 455/1/6 442/1/6 456/1/6
f 457/2/6 458/2/6 459/2/6
f 459/2/6 458/2/6 460/2/6
