# MagicaVoxel @ Ephtracy

# group
g Speedup

# material
mtllib Speedup.mtl
usemtl palette

# normals
vn -1 0 0
vn 1 0 0
vn 0 0 1
vn 0 0 -1
vn 0 -1 0
vn 0 1 0

# texcoords
vt 0.896484 0.5
vt 0.900391 0.5
vt 0.904297 0.5

# verts
v -1 0 1
v -1 0 -0
v -1 1 1
v -1 1 -0
v -1 1 -1
v -1 2 1
v -1 2 -0
v -1 3 1
v -1 3 -0
v -1 3 -1
v -1 4 -0
v -1 4 -1
v 0 0 -0
v 0 0 -1
v 0 1 -0
v 0 1 -1
v 0 3 1
v 0 3 -0
v 0 4 1
v 0 4 -0
v 1 0 1
v 1 0 -1
v 1 1 1
v 1 1 -0
v 1 1 -1
v 1 2 1
v 1 2 -0
v 1 2 -1
v 1 3 1
v 1 3 -0
v 1 3 -1
v 1 4 1
v 1 4 -0
v 1 4 -1
v -1 0 1
v -1 1 1
v -1 2 1
v -1 3 1
v 0 0 1
v 0 1 1
v 0 2 1
v 0 3 1
v 0 4 1
v 1 0 1
v 1 1 1
v 1 2 1
v 1 3 1
v 1 4 1
v -1 3 -0
v -1 4 -0
v 0 3 -0
v 0 4 -0
v -1 0 -0
v -1 1 -0
v 0 0 -0
v 0 1 -0
v -1 1 -1
v -1 3 -1
v -1 4 -1
v 0 0 -1
v 0 1 -1
v 0 2 -1
v 0 3 -1
v 0 4 -1
v 1 0 -1
v 1 1 -1
v 1 2 -1
v 1 3 -1
v 1 4 -1
v -1 0 1
v 0 0 1
v 1 0 1
v -1 0 -0
v 0 0 -0
v 0 0 -1
v 1 0 -1
v -1 1 -0
v 0 1 -0
v -1 1 -1
v 0 1 -1
v -1 3 1
v 0 3 1
v -1 3 -0
v 0 3 -0
v 0 4 1
v 1 4 1
v -1 4 -0
v 0 4 -0
v 1 4 -0
v -1 4 -1
v 0 4 -1
v 1 4 -1

# faces
f 3/2/1 2/2/1 1/2/1
f 4/2/1 2/2/1 3/2/1
f 6/1/1 4/1/1 3/1/1
f 7/2/1 5/2/1 4/2/1
f 7/1/1 4/1/1 6/1/1
f 8/2/1 7/2/1 6/2/1
f 9/2/1 5/2/1 7/2/1
f 9/2/1 7/2/1 8/2/1
f 10/2/1 5/2/1 9/2/1
f 11/1/1 10/1/1 9/1/1
f 12/1/1 10/1/1 11/1/1
f 15/3/1 14/3/1 13/3/1
f 16/3/1 14/3/1 15/3/1
f 19/1/1 18/1/1 17/1/1
f 20/1/1 18/1/1 19/1/1
f 21/3/2 22/3/2 23/3/2
f 23/3/2 22/3/2 24/3/2
f 24/3/2 22/3/2 25/3/2
f 23/2/2 24/2/2 26/2/2
f 24/1/2 25/1/2 27/1/2
f 26/2/2 24/2/2 27/2/2
f 27/1/2 25/1/2 28/1/2
f 26/3/2 27/3/2 29/3/2
f 27/2/2 28/2/2 30/2/2
f 29/3/2 27/3/2 30/3/2
f 30/2/2 28/2/2 31/2/2
f 29/1/2 30/1/2 32/1/2
f 30/3/2 31/3/2 33/3/2
f 32/1/2 30/1/2 33/1/2
f 33/3/2 31/3/2 34/3/2
f 39/2/3 36/2/3 35/2/3
f 40/1/3 37/1/3 36/1/3
f 40/2/3 36/2/3 39/2/3
f 41/2/3 38/2/3 37/2/3
f 41/1/3 37/1/3 40/1/3
f 42/2/3 38/2/3 41/2/3
f 44/3/3 40/3/3 39/3/3
f 45/2/3 41/2/3 40/2/3
f 45/3/3 40/3/3 44/3/3
f 46/3/3 42/3/3 41/3/3
f 46/2/3 41/2/3 45/2/3
f 47/1/3 43/1/3 42/1/3
f 47/3/3 42/3/3 46/3/3
f 48/1/3 43/1/3 47/1/3
f 51/1/3 50/1/3 49/1/3
f 52/1/3 50/1/3 51/1/3
f 53/2/4 54/2/4 55/2/4
f 55/2/4 54/2/4 56/2/4
f 57/2/4 58/2/4 61/2/4
f 61/2/4 58/2/4 62/2/4
f 58/1/4 59/1/4 63/1/4
f 62/2/4 58/2/4 63/2/4
f 63/1/4 59/1/4 64/1/4
f 60/3/4 61/3/4 65/3/4
f 61/1/4 62/1/4 66/1/4
f 65/3/4 61/3/4 66/3/4
f 62/2/4 63/2/4 67/2/4
f 66/1/4 62/1/4 67/1/4
f 63/3/4 64/3/4 68/3/4
f 67/2/4 63/2/4 68/2/4
f 68/3/4 64/3/4 69/3/4
f 73/2/5 71/2/5 70/2/5
f 74/3/5 72/3/5 71/3/5
f 74/2/5 71/2/5 73/2/5
f 75/3/5 72/3/5 74/3/5
f 76/3/5 72/3/5 75/3/5
f 79/2/5 78/2/5 77/2/5
f 80/2/5 78/2/5 79/2/5
f 81/2/6 82/2/6 83/2/6
f 83/2/6 82/2/6 84/2/6
f 85/1/6 86/1/6 88/1/6
f 88/1/6 86/1/6 89/1/6
f 87/1/6 88/1/6 90/1/6
f 88/3/6 89/3/6 91/3/6
f 90/1/6 88/1/6 91/1/6
f 91/3/6 89/3/6 92/3/6
